<svg width="78" height="39" viewBox="0 0 78 39" fill="none" xmlns="http://www.w3.org/2000/svg"><g clip-path="url(#clip0_1_2045)" fill="#fff"><path d="M56.1759 17.65c-.2417-.3776-.3953-.8045-.4498-1.2493-.0235-.1654-.0445-.3318-.0556-.4987-.0196-.2923.0478-.5753.1129-.857.1264-.5473.2083-1.0958.1085-1.6587-.1265-.797-.4754-1.5424-1.0068-2.1505-.2482-.2799-.5507-.4957-.854-.7094-.3434-.2417-.6672-.5007-.8724-.87846-.0145-.02661-.0372-.04844-.054-.07378-.1903-.28905-.3729-.58162-.4417-.9284-.0229-.11446-.0442-.22921-.071-.34283-.0754-.32059-.1296-.64864-.2353-.95923-.2229-.65441-.6373-1.18507-1.1494-1.64208-.4803-.43633-1.0677-.73805-1.7025-.87448-.1788-.03843-.357-.07955-.5346-.12333-.2648-.05336-.5177-.15403-.7466-.29694-.1551-.10559-.3077-.21541-.4668-.31495-.2473-.16206-.4583-.37367-.6196-.62147-.1239-.17979-.2451-.36142-.3678-.5422-.2484-.37338-.5658-.6958-.9356-.94994-.7115-.48194-1.4915-.76465-2.3565-.76395-.2841.01338-.567.04548-.8469.09602-.2165.02887-.4312.07012-.6477.10138-.2876.0404-.5667-.02816-.8469-.07547-.4044-.05561-.7904-.20373-1.1282-.432941-.1238-.08856-.2526-.171347-.3834-.249347-.1787-.106581-.3564-.217245-.5435-.307072-.5193-.238928-1.0862-.3573357-1.6579-.34621296-.7259-.00112635-1.4126.15374696-2.035.54205796-.1595.099541-.3151.205419-.4753.303834-.1561.09574-.3146.186271-.4731.277501-.1875.10715-.408.14066-.619.09405-.2492-.04857-.4994-.09348-.7459-.15402-.5819-.156286-1.1928-.171069-1.7816-.04295-.8257.19134-1.5631.54629-2.1406 1.18197-.1737.19134-.3221.40521-.4843.60725-.1304.16219-.2633.32227-.3967.48194-.1005.12361-.2438.20527-.4015.22879-.2557.04069-.5104.09348-.7677.11742-.76.06237-1.4853.34494-2.0869.81294-.6995.54262-1.201 1.219-1.4375 2.07996-.0457.16627-.0977.33072-.1517.49461-.1985.63779-.6371 1.17394-1.2234 1.49509-.2174.12165-.4351.24245-.6495.36902-.2611.14896-.4986.3358-.7047.55445-.8966.98007-1.3131 2.11627-1.1286 3.45157.0423.3059.0781.6178.0107.9249-.0519.2372-.1285.469-.1885.7047-.0707.2656-.1935.5146-.3615.7324-.1583.2112-.3219.4187-.4814.6292-.2625.3383-.4551.7252-.567 1.1383-.0679.2493-.1177.5033-.1489.76-.0814.7462.0055 1.4696.3507 2.148.1105.2172.2279.4308.3416.6462.107.2026.22.4082.246.636.0328.2911.1448.5688.1291.8684-.0066.1299.0312.2616.0377.3931.0149.298-.0609.5839-.1321.8695-.1019.409-.2083.8171-.2144 1.2454.0261.2265.0385.4556.0808.679.129.75.4627 1.4498.9642 2.0227.2447.2754.5401.4925.8318.7134.3123.2276.5779.5134.7819.8413.213.3408.3522.722.4089 1.1195.0524.3869.0898.7801.2325 1.1463.5003 1.2834 1.3822 2.1673 2.7266 2.5569.2732.0792.5489.1506.8181.2416.3715.1212.6882.3689.8952.6997.1249.1971.2477.3965.3585.6018.3558.6683.9023 1.216 1.5702 1.5739.5609.306 1.1528.5135 1.7982.5173.299.0017.5985-.0322.8975-.0546.2836-.0214.5669-.0685.8507-.0131.1495.0291.2974.0659.4449.1032.3713.0942.7319.2123 1.0384.4554.1393.1106.2861.2115.4253.3222.5627.4514 1.2434.7314 1.9613.8067.8011.0897 1.573.0024 2.2945-.3822.2197-.1169.437-.2392.6561-.3565.2071-.1204.4331-.2043.6687-.2481.2561-.0386.5127-.0731.7701-.1032.0905-.0135.1825-.0138.2732-.0007.2994.0546.6002.1067.8945.183.5737.1486 1.1496.2066 1.7356.0917 1.0582-.2077 1.9454-.6958 2.5875-1.5825.0298-.041.0631-.0797.0937-.1204.2475-.3483.5622-.6436.9259-.8684.4111-.2468.8296-.4421 1.3107-.5011.2927-.0349.5828-.0882.8688-.1594 1.1275-.2847 2.3626-1.3654 2.7178-2.6222.0401-.1415.0824-.2825.1183-.4252.1085-.4304.2557-.837.5263-1.2035.275-.3726.5655-.7158.9737-.9465.1236-.0701.2432-.1476.3635-.2235.2488-.1492.4801-.3256.6894-.5263.4886-.4932.8478-1.0991 1.0457-1.7642.1471-.4396.1999-.9052.1551-1.3666-.0338-.2923-.0749-.5837-.1092-.8759-.0392-.2565-.033-.518.0178-.7724.0446-.1924.0937-.3838.1355-.5765.044-.2092.126-.4086.242-.5883.1271-.1958.2588-.3887.3949-.5788.3017-.404.5208-.8633.6449-1.3519.0741-.3111.1142-.6296.1197-.9495.0108-.6282-.0902-1.2346-.3838-1.7974-.1161-.2259-.2434-.446-.3818-.659Zm-.3848 2.7036c-.0453.5139-.2355 1.0045-.5488 1.4147-.1691.2283-.3242.4676-.4751.7081-.1459.2386-.253.4991-.3172.7713-.022.088-.0575.1724-.0872.2583-.0088.0182-.016.0371-.0216.0565-.033.2148-.0639.43-.0968.6447-.0342.2979-.0277.5991.0189.8953.0357.3023.0837.6036.1064.9066.0552.7373-.4185 1.8875-1.2267 2.3969-.2021.1274-.4049.2534-.6065.3818-.3763.2254-.703.5244-.9606.8792-.0255.0369-.0645.0644-.0927.1-.0432.0546-.0838.1112-.1223.1692-.0279.0419-.0454.0914-.0762.1307-.2384.3116-.4144.6661-.5182 1.0441-.0614.2094-.1234.4188-.1742.6311-.1831.766-.6568 1.3137-1.2973 1.7379-.3279.2064-.6971.3386-1.0815.3875-.3261.0511-.6538.1014-.9724.1844-.2221.0709-.439.1573-.6489.2588-.1023.0431-.2016.0935-.302.1411-.0232.0103-.0454.0225-.0663.0366-.1196.0848-.2359.1744-.3579.2553-.2862.1948-.54.4333-.7524.7066-.1207.1507-.2436.2999-.3575.4555-.3763.5135-.8886.8238-1.4894 1.0038-.2689.0824-.5483.1255-.8296.1276-.248-.0063-.4942-.0429-.7331-.1091-.327-.0732-.6522-.1619-.9834-.2078-.2336-.0323-.4756-.0051-.7138-.0027-.0405 0-.0807.0115-.1212.0128-.0757-.0075-.152-.0059-.2273.0045-.3551.1021-.7347.1129-1.0702.2874-.2253.1168-.4526.2303-.6765.3506-.2731.1467-.54.3093-.8483.3721-.8875.1808-1.7188.0732-2.4601-.4876-.2186-.1656-.4377-.3313-.6625-.4886-.2753-.1931-.5822-.3369-.9068-.4247-.0674-.0214-.1337-.0464-.1984-.0748-.0271-.0138-.0552-.0253-.0842-.0342-.2138-.0415-.4276-.0838-.6424-.12-.2976-.0421-.5992-.0454-.8975-.01-.2531.0234-.5057.0528-.7593.069-.5799.0373-1.1024-.1454-1.5937-.4338-.3956-.2255-.7235-.5524-.9497-.9471-.128-.225-.259-.4484-.3924-.67-.3939-.6696-1.0353-1.1581-1.7863-1.3604-.2052-.0588-.4096-.1199-.6165-.1713-.8449-.2109-1.4235-.7492-1.8438-1.485-.1935-.3389-.252-.7149-.3067-1.0923-.0526-.3617-.0963-.7273-.2413-1.0659-.2787-.6508-.6439-1.2428-1.2169-1.6835-.1571-.1208-.3097-.2476-.4698-.3644-.5702-.4153-.8918-.9881-1.0605-1.6582-.1082-.4355-.1053-.8913.0082-1.3255.0874-.3232.1581-.6506.2115-.981.0277-.247.0301-.496.0069-.7434-.0048-.0735-.0227-.3265-.051-.5524-.0199-.1588-.0371-.3153-.0573-.4456-.0458-.4526-.2418-.8259-.4549-1.2215-.1083-.2009-.2168-.4022-.3171-.6077-.1912-.4124-.2678-.8685-.2216-1.3206.0156-.1973.0456-.3931.0896-.5859.0754-.3332.2236-.6456.4338-.9148.1672-.2176.3368-.4333.4991-.6546.2209-.3106.3924-.6534.5081-1.0162.0669-.1967.1027-.3981.1618-.5946.1265-.4209.1171-.8521.0804-1.2839-.0151-.177-.0312-.3538-.0473-.5308-.0583-.6502.1344-1.2331.4791-1.7743.2249-.3652.5394-.6672.9137-.87744.2447-.13516.4881-.27272.728-.4159.325-.20007.6139-.45364.8546-.74945.364-.43309.6286-.94037.7754-1.48623.0448-.16121.1015-.31946.147-.48024.2367-.84097 1.2621-1.804 2.3573-1.89397.2781-.02295.5541-.0749.8306-.11277.2608-.03211.5127-.11574.7407-.24583.2282-.13009.4282-.30412.5884-.51207.1581-.19866.3212-.39422.4652-.60288.5005-.72453 1.212-1.09073 2.0619-1.22224.3786-.05871.7479.01056 1.1174.09237.3122.06913.6274.12474.9433.17388.4311.06716.8284-.05196 1.1996-.26019.2566-.14403.5085-.29863.7516-.46448.782-.53361 1.6292-.60851 2.5231-.37395.2151.06308.4193.15839.6057.28257.2415.15065.4784.30862.7214.4566.3169.18303.6594.31749 1.0164.39859.1972.05012.3962.06828.5931.10982.4676.09912.9306.04097 1.3929-.04252.3-.05463.5992-.13052.9061-.11179.901.05505 1.665.39253 2.2252 1.121.1639.21302.3052.44336.4587.66455.2367.33692.5277.63259.8608.87503.1751.1301.3637.23372.5417.35551.3491.23977.7474.36297 1.1555.45758.1437.03323.2873.0666.4314.09687.828.1736 1.4195.67004 1.8686 1.36148.2066.31805.2907.67708.365 1.04188.0565.30918.129.61527.2173.91685.0808.21302.1764.42013.2863.61977.0389.08209.0828.1619.1248.2427.012.0276.0264.0541.0429.0793.0823.1084.1716.2119.2497.3234.2252.3083.4994.5777.8116.7976.1389.1028.2776.2061.42.304.5919.4057.9237.9831 1.1124 1.659.1367.4892.0986.9728-.0156 1.4597-.0624.2664-.1051.5376-.1474.808-.0375.267-.0288.5384.0258.8026.0051.0143.0079.0294.0083.0446-.0311.2246.077.4249.1117.6379.0629.3861.2313.7337.4291 1.0675.1115.1878.2241.3748.3363.5622.3153.5274.385 1.1037.3336 1.7031l.0002.0002Z"/><path d="M48.0009 19.4826c-.0031-5.8233-4.7378-10.51723-10.5046-10.54159-5.8744-.0245-10.592 4.75789-10.6018 10.52039-.0095 5.7626 4.6876 10.5544 10.5505 10.5566 5.8159.0024 10.5554-4.7287 10.5559-10.5354Zm-10.5794 9.6838c-5.3777-.0127-9.6805-4.3936-9.6735-9.6938.004-2.5673 1.0278-5.0282 2.8466-6.8431 1.819-1.8149 4.2845-2.83542 6.8561-2.83795 5.4302.00915 9.7053 4.43835 9.6977 9.70285-.0077 5.253-4.2848 9.6847-9.7269 9.672ZM48.5702 12.9764l-.5311.1841c.0182.0617.0293.1053.0438.1481.0824.24.1695.4782.2464.7199.0104.041.033.0779.0644.1063.0315.0283.0707.0468.1126.0531.7632.1932 1.5249.3924 2.2866.5901.0516.0132.1024.0294.1535.0442.0008.0117.0015.0234.0022.035-.2518.0882-.5025.1793-.7557.2637-.2575.0856-.5095.1905-.7777.2577l-.1015-.2508-.5355.1883.4381 1.2592.5378-.1869-.1093-.3429c.6735-.2375 1.3372-.4674 2.0069-.6946.048.1225.0879.2242.1319.3363l.535-.1851c-.0149-.053-.0249-.0967-.0395-.1388-.0827-.2398-.1738-.4771-.247-.7196-.0117-.0482-.038-.0917-.0751-.1248-.0371-.0331-.0833-.0541-.1325-.0603-.7747-.1896-1.5478-.3852-2.3215-.5793-.0435-.0109-.0864-.0255-.1296-.0385l-.0021-.0359 1.5537-.5377c.0381.0882.0697.161.1062.2456l.5363-.1856-.4311-1.2388-.5362.1865c.034.1158.0632.2157.0959.3272l-2.0056.6934-.1203-.3191ZM46.1119 9.70659l-.442.34561c.0282.0407.0491.0747.0735.1059.1622.2084.3297.413.4854.6258.0227.0358.0557.0638.0948.0806.0389.0166.0821.0212.1237.0129.2376-.0233.4761-.0388.7141-.0571.4661-.0364.9322-.0727 1.3981-.109.1339-.0103.2683-.0163.4024-.0244l.0135.0334-1.2777.9957c-.0685-.0788-.1238-.1425-.1847-.2125l-.4459.3484.8228 1.0534.4474-.3492-.2137-.293c.5614-.4392 1.1133-.8733 1.6754-1.3039l.2309.2787.4448-.3482c-.0306-.0453-.0511-.0794-.0753-.1105-.165-.2126-.3326-.4231-.495-.6377-.0203-.0311-.0495-.0557-.0838-.0705-.0343-.0148-.0721-.0192-.1087-.0126-.7389.0659-1.4783.1259-2.2177.187-.1143.0094-.2291.0142-.3434.0211-.0055-.0104-.011-.0208-.0163-.0312.4321-.33638.8619-.67598 1.3022-1.01248l.1773.19866.4472-.34804c-.2708-.34649-.5354-.68468-.8085-1.03413l-.4499.34973c.0743.10137.1359.18571.2028.27666l-1.6758 1.30516-.2179-.26427ZM23.2486 15.3791c.6803.2332 1.3482.452 2.0134.6881l-.0998.3225.5384.1818c.151-.4429.2974-.8726.4486-1.3153-.1864-.0629-.3578-.1212-.5375-.1822-.044.1131-.0834.2144-.1262.3247l-2.0135-.6843c.1437-.4456.2905-.8739.4443-1.3081l2.018.6857c-.0354.1135-.0665.2129-.1023.3276l.5406.1836c.1517-.4474.2975-.8773.4465-1.3167l-.5386-.183-.1205.3266-2.017-.6857c.0369-.1194.0678-.219.1029-.3328l-.5379-.1806c-.3737 1.0974-.7439 2.1847-1.1182 3.2838l.5359.1822c.0433-.112.0811-.2095.1229-.3179ZM37.9732 6.94801c.2485.01563.497.03675.7458.03943.2259.00394.446-.07209.6212-.21472.1753-.14262.294-.34255.3356-.56444.0597-.29299.0096-.55515-.2283-.76057-.0144-.01521-.0266-.03238-.0364-.05083.077-.07011.1485-.14614.2138-.22724.1478-.21499.1566-.45913.1003-.70214-.1008-.43533-.4485-.72058-.9196-.75832-.4711-.03773-.9426-.06603-1.414-.09729-.0545-.00366-.1092-.00056-.1716-.00056-.0282.18515-.0388.37254-.0317.55966l.32.0435c-.0446.71214-.0868 1.40752-.1436 2.1091h-.3338c-.0111.18698-.0219.36621-.0329.55149.0498.00648.079.01197.1085.01408.289.01999.5778.04083.8667.05885Zm.2433-2.69494c.1888.01183.3612.01225.5307.0359.209.02929.3351.29835.254.51728-.0206.07406-.0669.1384-.1306.18149-.0636.04322-.1406.06237-.2172.0542-.1419-.00605-.2835-.01901-.4252-.02971-.0218-.00464-.0434-.01112-.0643-.01928.0174-.2471.0344-.48743.0526-.73988Zm-.09 1.33431c.2062.01323.3874.02379.5684.03745.0301.00366.0593.01281.0864.02703.1464.0697.2193.26103.1769.4604-.011.08363-.0525.16022-.1167.21513-.064.05491-.1462.08434-.2307.08237-.1617-.00549-.3229-.02126-.4844-.03379-.0186-.00564-.0363-.01366-.0526-.02394.0171-.24639.0343-.49602.0527-.76465ZM43.1872 7.65615c-.1138.15585-.2196.30608-.32.4694l1.1417.7831.3207-.46814-.2791-.20683.6387-.92769c.0203.0673.033.09912.0391.13249.0756.4038.146.80858.2276 1.21111.0127.04857.0138.0994.0033.1484-.0106.04899-.0326.09475-.0641.13389-.0943.12404-.1777.25639-.2737.39732l.883.60528c.1208-.17585.2341-.34086.3489-.50785-.0301-.02844-.0632-.05378-.0985-.07532-.0407-.02084-.075-.0521-.0994-.09053-.0244-.03844-.0381-.08279-.0395-.12841-.0702-.40464-.1448-.80872-.2163-1.21322-.0051-.04463-.0073-.08955-.0066-.1346.0729-.01169.1321-.02379.1922-.03027.3232-.03506.6477-.06406.9699-.10433.1689-.02112.3344-.05449.4735.10968l.3551-.51728-.9079-.62189c-.1062.15248-.2044.28779-.2955.42774-.0178.03013-.0427.05533-.0728.07335-.0299.01802-.064.0283-.099.02971-.394.04238-.787.09236-1.1806.13826-.0414.00098-.0827-.00099-.1239-.00549l.5481-.79746.2953.1843.3219-.46758-1.1479-.78605-.3204.46884.2638.19782c-.1509.27708-1.1253 1.67066-1.2174 1.74078l-.2602-.16853ZM25.0437 11.2469l1.6942 1.1761-.1882.29.4663.3239 1.4876-2.1389-.9532-.6608-.3902.5614c.1631.1149.315.2219.4795.338-.1691.2424-.3302.473-.4983.7142l-.6445-.4488.3668-.5425-.494-.342c-.129.1813-.2516.353-.3802.5339l-.5513-.3833c.1718-.2482.3269-.4822.4986-.71084.1385.09234.259.17294.3864.25784l.3875-.56167-.9061-.62682-1.4862 2.13769.5147.3577.2106-.2751ZM34.8125 7.22848c.5664.00212.9912-.19105 1.2806-.53135.6343-.74509.5115-1.91734-.2649-2.52768-.2995-.24301-.6804-.36283-1.0654-.33523-.3849.02759-.7448.20049-1.0064.48377-.4894.51418-.5919 1.3557-.2369 2.0142.3002.55684.7659.8649 1.293.89629Zm-.6477-2.32578c.0553-.10179.1326-.19007.2261-.25849.0935-.06843.2011-.11531.315-.13728.114-.02182.2312-.0183.3436.01042.1124.02886.2169.08222.3061.15614.2028.17501.3426.41182.3977.6737.0552.26202.0226.53474-.0923.77662-.0549.11207-.1357.20964-.2356.28469-.0999.0749-.2163.12502-.3396.14642-.1231.02126-.2496.0131-.3689-.02393-.1194-.03703-.2283-.1018-.3177-.18909-.1196-.11404-.2142-.25146-.278-.4038-.0639-.15219-.0954-.31608-.0928-.48109-.0045-.19359.0425-.38493.1364-.55431ZM40.8157 7.39314c.2745.20626.6116.312.9549.29919.3434-.01267.6717-.14319.9299-.3693.0618-.05562.1124-.1232.1759-.19374l-.5775-.39056c-.0459.0383-.076.06519-.108.08997-.4722.36761-1.0931.16923-1.266-.40408-.0566-.18557-.0625-.38282-.0172-.57134.0842-.35889.2709-.64512.6122-.80774.3752-.17881.8615-.03731 1.0066.32115.0291.08166.0795.15389.1462.20922.0667.05533.1473.09166.2329.10503.0344.00817.0671.02309.1014.03337.0757.02281.1516.04491.2375.07012.0764-.23062.1476-.44491.2214-.66765-.1155-.039-.2148-.07687-.3166-.10602-.044-.0107-.0854-.03027-.1215-.05758-.0361-.02732-.0661-.06181-.0884-.10109-.086-.15107-.2132-.27455-.3668-.35621-.1981-.11109-.4186-.17614-.6453-.19036-.2266-.01436-.4537.02239-.6641.10757-.6795.26483-1.1234.96881-1.0915 1.72586.0214.51573.2253.94275.644 1.25419ZM29.1786 10.118c.689-.14512 1.2596-.8291 1.1691-1.6129-.0057-.12798-.0437-.25244-.1107-.36184l-.619.28989c.0095.05463.0157.08941.0212.12433.0239.12277.0177.24962-.0182.36958-.036.11996-.1006.22935-.1882.31876-.0877.08954-.1957.15642-.315.195-.1192.03858-.2461.04773-.3696.02661-.5405-.07307-.9968-.60162-.9912-1.14663.0051-.4818.4122-.87264.8936-.78141.0482.01169.0985.01014.1459-.00436.0473-.0145.09-.04154.1231-.07814.0887-.08349.1849-.15868.2765-.23907.0291-.02577.054-.05646.0851-.08941l-.4572-.52685c-.1019.08631-.1919.1598-.2785.2371-.0484.04463-.1115.06969-.1774.07012-.1684-.0024-.3351.03533-.486.11024-.2727.14178-.4946.36479-.6346.63808-.3045.6202-.2354 1.21942.1691 1.76344.436.58686 1.0292.85156 1.762.69746ZM30.5416 6.3899l-.1774-.38732.3781-.18346c.3168.65047.6265 1.28658.9401 1.93113l-.3019.16206c.088.17486.1614.34382.2548.50615.2237-.10911.4301-.20682.6345-.3089.2018-.10095.4123-.18571.6088-.30552l-.2487-.50264-.3151.1446-.9429-1.9362.4297-.20331.1936.37733.6168-.30102-.4297-.88109-2.6843 1.30474.4306.88095.613-.2975ZM39.408 33.1725l.3332-.0259v-.4983c-.0605 0-.1001-.0014-.1397 0-.2133.0089-.4265.0241-.6396.0257-.0424-.0024-.0846.007-.1222.027-.0374.02-.0687.05-.0902.0866-.1951.2848-.3962.5651-.5962.8464-.0248.0349-.055.0663-.0882.1056-.0324-.0346-.054-.0559-.0736-.0788-.2337-.2744-.4683-.548-.699-.8249-.0189-.0265-.0445-.0475-.0741-.061-.0296-.0134-.0622-.0189-.0946-.0156-.1572.009-.3151.0084-.4723.0159-.1041.0051-.2079.017-.3103.0258 0 .1012-.0035.1823.0012.263.0043.0784.0172.1562.0263.2345h.3172c.0131.3203.0257.6312.0387.9477l-.3316.028c.009.1718.0172.3303.0261.502l1.1206-.0503v-.4914l-.2316-.0205c-.01-.1956-.0196-.383-.0293-.5705l.0369-.0141.7882.896c.1277-.1744.2433-.3334.3598-.4917.1151-.1564.2239-.318.3466-.4687l.034.0134c.0082.1894.0165.3788.025.5729l-.2147.027c.0098.1666.0191.3254.0291.4992l1.1161-.0509v-.5078h-.3512c-.0135-.3203-.0268-.6273-.0406-.9463ZM40.7224 32.3917c-.0234.0221-.0493.0414-.0842.0707-.0228-.0676-.0263-.1401-.0101-.2095.0161-.0694.0512-.1329.1014-.1835.1124-.1185.2541-.2055.4108-.2523.1687-.0557.3393-.1056.5087-.1591.066-.021.1308-.045.2011-.0692-.0552-.1938-.1061-.3733-.1639-.5756-.1595.0441-.3008.0825-.4414.123-.0093.0024-.0181.0065-.0257.0121-.0076.0058-.0141.013-.019.0212.0156.1102-.0793.1044-.1375.1263-.1931.0644-.3747.1586-.5384.2792-.3299.2603-.4912.599-.4094 1.0154.0699.332.1583.6596.2648.9817.0436.1243.1114.2387.1996.3367.4146.4781 1.126.3691 1.4958.0326.3478-.3163.4284-.797.2134-1.2561-.0628-.1439-.1598-.2704-.2828-.3681-.1228-.0978-.2679-.164-.4223-.193-.1545-.029-.3137-.0197-.4637.0269-.1501.0467-.2863.1292-.3972.2406Zm.6534 1.3152c-.2809.0071-.5352-.253-.5369-.5496.0013-.1354.0552-.2649.1502-.3615.0949-.0966.2237-.1526.3592-.1564.2746-.0007.4889.2466.4916.5674.003.0633-.0067.1267-.0286.1864-.0219.0595-.0553.1142-.0986.1606-.0431.0466-.0952.0841-.1531.1103-.058.0263-.1205.0408-.1839.0426l.0001.0002ZM47.7048 30.0948l-.614-.7303.2066-.1947-.3218-.3807-.8733.7345.3231.3818.221-.1688.1609.1933-.6676.5609c-.0567-.0701-.1058-.1306-.1639-.2026l.2021-.1719c-.1122-.1337-.2146-.2557-.3234-.3852l-.874.7344c.1121.1333.215.2558.3218.3824l.2345-.1778.6153.732-.2149.1999c.1113.1323.2119.2516.3211.3814l.8741-.7345c-.1145-.1356-.2173-.2571-.3233-.3828-.0786.0606-.1415.1091-.2147.1655l-.2047-.2472.6692-.5613.202.2479-.2017.1878.3219.3818.872-.7345-.32-.3811-.2283.1698ZM45.1354 32.0808c-.1464-.2836-.2894-.5601-.4342-.8404l.2018-.1256-.233-.4427c-.1929.0996-.3701.1973-.5531.2825-.0416.0168-.078.0446-.1049.0805-.0271.0357-.0439.0783-.0485.1229-.0763.4291-.1597.857-.2415 1.2852-.0115.0425-.0252.0843-.0413.1254l-.3282-.634.1997-.1268c-.0764-.1474-.1497-.2884-.2287-.4409-.3207.1663-.6255.3243-.9426.4886l.2298.4408.2291-.0966.437.8442-.2055.1286c.0745.157.1465.2986.2309.4393.1925-.0993.3654-.1967.5455-.2778.0462-.0188.0866-.0497.1165-.0897.03-.04.0483-.0873.0531-.137.0773-.4186.1619-.8359.2448-1.2535.012-.0401.0264-.0794.0435-.1176.1155.2207.2231.4116.3138.6132l-.2072.1291.2306.4413.9423-.4903c-.0831-.1574-.1557-.2952-.2301-.4363l-.2196.0876ZM25.7152 26.7625l.4396-.2232c-.3455-.6795-.6824-1.3422-1.022-2.0102-.1519.0671-.2998.143-.443.2271.043.0934.0781.17.1197.2603-.1614.0729-.306.1471-.4569.2043-.2549.0966-.4544.0305-.6124-.1902-.0318-.0441-.061-.0899-.0979-.1446l-.4392.2268c.0566.1099.1009.201.1497.2897.0799.1608.2115.2902.3738.3674.1623.0771.3459.0978.5214.0585.2348-.0456.4616-.1246.6737-.2349.0478-.0234.0976-.0427.153-.0668.0853.1677.1684.316.2389.4813l-.8616.4357-.1343-.2503c-.2485.0953-.3752.1687-.4362.2527l.537 1.0585c.1547-.0646.3043-.1401.4482-.226l-.1487-.3199c.2932-.1495.5696-.2944.8572-.4304l.14.2342ZM32.6798 32.3063c-.06.1524-.2116.1943-.3319.2734-.0194.0051-.0403.0027-.0581-.0066-.0559-.021-.1107-.045-.1762-.0722.098-.2563.1916-.501.2905-.7594l-.8233-.3204c-.0625.1636-.1195.3123-.179.4676.0581.0249.0997.0423.1405.0607.0444.0199.0884.041.1416.0658-.1181.3017-.2301.5881-.3481.8899l-.2928-.103-.1819.4684 1.016.3945.1802-.4634-.1816-.0935c.0325-.0784.0624-.151.0909-.2195.0607-.0007.1196.02.1664.0586.0468.0384.0786.0922.0894.1518.0725.2375.159.4708.2442.7042.0126.0475.0414.089.0815.1176.1413.0655.2886.1169.4456.1781l.1824-.4694c-.0711-.0284-.1285-.0474-.1821-.0743-.0374-.0138-.0695-.0386-.0922-.0713-.0796-.1791-.1512-.3618-.2296-.5532.1834-.1056.3483-.2048.518-.2945.0423-.0121.0874-.0101.1286.0056.071.0188.1396.0468.2171.0741.0625-.1618.1188-.3062.1801-.4646l-.8786-.3416c-.0569.143-.1077.27-.1576.3966ZM52.3093 20.6181c-.1321-.0055-.2644-.0014-.3967-.0018-.2219-.0009-.2559-.0264-.3245-.2408-.0309-.0967-.0619-.1933-.0929-.2899-.0079-.0241-.0164-.048-.0252-.0718-.0118-.0367-.035-.0687-.0665-.0912-.0314-.0226-.0694-.0342-.1079-.0334-.0389-.0007-.0767.0115-.1078.0346-.0312.0231-.0536.0558-.0643.0931-.0473.1339-.089.2699-.1347.4042-.0547.1612-.0978.1931-.2645.1947-.1424.0019-.2848-.0021-.4271.0019-.0436-.0052-.0876.0049-.1244.0287-.0367.0239-.0639.0598-.0769.1018-.0265.0839-.0014.1519.0885.2222.1119.0878.2263.1719.3393.259.1387.1073.1574.1615.1079.3272-.0421.141-.0913.2798-.1315.4213-.0178.0401-.0206.0853-.0079.1274.0129.042.0404.078.0776.1014.034.0232.0747.034.1158.0308.041-.0034.0795-.0205.1093-.0488.0858-.0631.173-.1251.259-.1881.2298-.1683.255-.1689.4808-.0072.0867.0623.1723.126.2606.1858.0938.0635.168.0659.2395.0133.0715-.0527.0871-.1208.0559-.2332-.0069-.0245-.015-.0486-.0229-.0726-.0359-.111-.0738-.2214-.1074-.3332-.0458-.153-.0252-.2164.1027-.3165.1158-.0909.2335-.1792.3512-.2683.026-.0154.0482-.0366.0646-.0623.0162-.0254.0262-.0544.029-.0846.0021-.0269-.0014-.0539-.0106-.0792-.009-.0254-.0235-.0485-.0423-.0678-.0189-.0193-.0416-.0343-.0667-.044-.0252-.0099-.052-.0141-.079-.0127ZM23.7472 21.9337c.1093.0739.2146.1536.3229.2289.1155.0802.1883.0879.2635.0283.0928-.0732.0791-.1656.0468-.2626-.0403-.1201-.078-.241-.1152-.3622-.0535-.1751-.0361-.2284.1084-.3394.1171-.0895.2367-.1753.3508-.2682.1093-.089.121-.2089.0234-.2845-.0494-.0337-.1075-.0525-.1673-.0545-.1368-.0078-.2743-.0016-.4114-.0031-.1685-.0021-.2099-.0324-.2647-.1942-.0454-.1343-.0871-.27-.1332-.404-.0112-.0368-.0337-.069-.0643-.0921-.0306-.0233-.0679-.0362-.1064-.0369-.0383-.0007-.0761.0108-.1076.0328-.0314.022-.0551.0532-.0678.0895-.0127.0331-.0234.0669-.0347.1006-.0381.1156-.0757.2312-.1141.3466-.0116.0475-.0393.0893-.0788.1181-.0394.029-.0877.043-.1365.0397-.0762-.0005-.1523 0-.2286 0v.0009h-.2285c-.0436-.0045-.0873.0053-.1247.0279-.0373.0223-.0664.0564-.0829.0967-.0338.0832-.0045.1558.0936.2338.1078.0847.2186.1659.3271.2492.1516.1158.1672.1662.1089.3523-.0411.1307-.0886.2595-.122.3918-.0157.0573-.0133.118.007.1739.0451.1028.1653.1242.2714.0531.1224-.0818.2383-.1727.359-.2571.0408-.0394.0952-.0618.1519-.0628.0567-.001.1117.0196.154.0575ZM50.5814 26.1866c-.2961-.1541-.5827-.2999-.8663-.4695l.1639-.2922.3399.1651.2645-.4963-.7655-.4096-1.1339 2.1115c.262.1403.5072.2775.768.4077l.2636-.4936-.3309-.1868.158-.2884c.2953.1584.5824.3034.8616.4669-.0488.1019-.0895.187-.1332.2779l.44.2349.5842-1.0868-.4422-.2349c-.0604.1038-.1133.194-.1717.2941ZM49.4521 28.0683c-.0787-.0609-.1463-.1127-.2138-.1649-.1568-.1211-.3074-.2512-.4714-.3617-.2868-.1932-.5602-.175-.8285.0435-.1869.1511-.3312.348-.4189.5715-.0672.1518-.1025.3159-.1035.4819l.3733.08c.0195-.0604.0322-.1036.0468-.146.0622-.2001.1807-.378.3413-.5129.1453-.1153.2663-.1013.4008.0352-.0735.0785-.1399.1481-.205.2192-.1419.1397-.2457.3131-.3013.5042-.0314.1056-.031.2181.0013.3234.0323.1053.0949.1988.1802.2688.0807.0792.1838.1319.2953.1509.1116.019.2262.0035.3286-.0445.1092-.0529.2093-.1229.2966-.2071.1448-.1339.2324-.3182.245-.5149.0445.0006.0885-.0094.1286-.0291.1588-.1895.3107-.385.4713-.5869l-.3922-.3124-.1745.2018Zm-.4332.7168c-.0358.072-.0828.1379-.139.1955-.0347.0411-.0841.0672-.1375.0729-.0536.0058-.1074-.0094-.15-.0422-.0427-.0329-.0709-.0809-.0791-.1342-.008-.0532.0048-.1074.0359-.1513.0287-.0473.0613-.0922.0975-.1342.0656-.0831.1327-.165.1999-.2467.0111-.008.0232-.0143.0362-.0187.2312.1537.2527.2192.1357.459l.0004-.0001ZM25.8707 28.013l.9109 1.1496c.1592-.1121.2962-.2527.4039-.4147.0874-.1317.1376-.2846.1454-.4425.0089-.417-.1918-.7234-.5374-.9253-.6747-.3943-1.419.1104-1.5622.703-.0268.1081-.0345.2201-.023.3309.0559.4767.4629.924.9531 1.0513l.1638-.3747c-.054-.037-.1019-.0649-.1439-.1001-.1009-.0843-.2038-.1671-.2966-.26-.0949-.0942-.1529-.2192-.1632-.3524-.013-.0687-.0058-.1397.0207-.2045.0266-.0647.0711-.1205.1285-.1606Zm.8606-.0948c.1483.187.1441.3499-.0277.5266l-.5132-.6496c.1966-.1177.3883-.0696.5409.123ZM34.7704 32.4163c-.1388-.0005-.2763.027-.4043.0805-.1281.0535-.2441.1321-.3415.231-.0971.099-.1736.2163-.2247.3451-.0512.129-.0761.2667-.0731.4052 0 .5524.3976 1.0316 1.0828 1.0364.7012.0049 1.035-.5688 1.0347-1.0499.0042-.5884-.461-1.0427-1.0739-1.0483Zm.013 1.5757c-.0663.0014-.1323-.0105-.1937-.0354-.0615-.0248-.1173-.0619-.1638-.1089-.0467-.047-.0834-.103-.1076-.1647-.0243-.0615-.0357-.1276-.0336-.1936-.0024-.3181.2124-.5543.5028-.5528.0664-.0039.1329.0062.1951.0299.0622.0238.1186.0604.1655.1077.0468.047.083.1038.1061.166.0233.0624.0328.1288.0283.1951-.0037.3729-.2676.5766-.4991.5569v-.0002ZM29.8984 30.5049c-.5338-.0124-1.0536.4373-1.0624 1.0737-.0077.5527.509 1.0381 1.0863 1.0417.5608.0034 1.038-.4822 1.041-1.0597.0028-.5693-.4811-1.0421-1.0649-1.0557Zm-.0185 1.5846c-.0649-.0003-.129-.0133-.1886-.0387-.0598-.0252-.1138-.0621-.1589-.1085-.0453-.0464-.0807-.1013-.1042-.1615-.0238-.0603-.0351-.1246-.0336-.1893 0-.2996.2439-.561.5244-.5633.1304-.0003.2556.0507.3489.1419.093.0911.1466.2152.149.3454-.0015.3-.2566.5726-.537.574ZM29.2676 30.1263c-.0406-.0479-.0843-.0929-.131-.1347-.089-.0678-.1554-.1607-.1907-.2666-.0657-.166-.1753-.3111-.3171-.4197-.3213-.2704-.6802-.341-1.0644-.1733-.1887.0744-.3514.2023-.468.3681-.1167.1657-.1821.3618-.1883.5643-.0405.6506.5874 1.206 1.2348 1.1053.1188-.0076.2319-.0538.322-.1315-.0458-.0723-.0889-.1405-.1327-.2086-.046-.0717-.0928-.1431-.1341-.2066-.0944.0169-.19.0261-.2859.0272-.0673-.0045-.133-.0227-.1931-.0532-.06-.0307-.1132-.0734-.1561-.1252-.043-.0519-.0749-.1121-.0938-.1767-.0188-.0646-.0243-.1325-.016-.1992.0362-.2943.3185-.5252.5971-.4881.1186.0187.2282.0751.3121.1609.084.0857.1382.1961.1544.3149.0013.049.0163.0968.0436.1376.1064.1069.2233.2033.3434.31l.3638-.4049ZM52.7085 13.9225c-.0588-.014-.1137-.0415-.1602-.0804-.0913-.0812-.1488-.1936-.1614-.3152-.0124-.1214.0212-.2432.0941-.3413.0148-.0197.0282-.0404.0419-.0601l-.1673-.4746c-.2304.1739-.3874.3689-.4039.6476-.02.307.0797.6097.2783.8449.1837.2246.4312.3026.7408.2805-.0488-.1418-.0951-.2592-.1286-.38-.0066-.0317-.0233-.0604-.0473-.0822-.0239-.0218-.0543-.0355-.0864-.0392Z"/><path d="M39.8645 20.0686c-.1862-.1035-.3779-.1967-.5742-.2795-.0959-.0431-.199-.0708-.3085-.109.0062-.1061.0139-.2068.0175-.3076.0072-.2087-.0897-.3076-.297-.3209-.1267-.0053-.2526-.0214-.3766-.0483-.5638-.1351-1.0302-.4473-1.4607-.8202-.0739-.0641-.0798-.1158-.022-.215.1176-.2015.2291-.4081.3634-.598.4682-.6467 1.0103-1.2369 1.6152-1.7584.3848-.3401.7835-.6635 1.2486-.8934.0361-.0186.069-.0428.0976-.0716.2059-.2036.4136-.406.6144-.6144.0402-.0376.0727-.0828.0955-.1329.0227-.0501.0354-.1043.037-.1594.0017-.055-.0075-.1098-.0271-.1613-.0196-.0514-.0492-.0986-.0872-.1386-.2252-.2414-.4594-.4752-.7003-.7006-.0804-.0767-.1877-.1189-.2988-.1174-.1113.0016-.2173.0466-.2956.1256-.0378.0338-.0728.0711-.1087.107-1.233 1.2317-2.4662 2.4635-3.6993 3.6956-.0278.0357-.0627.0654-.1025.0871-.0399.0218-.0839.0352-.1291.0392-.1287.0088-.2487.0677-.3347.1636-.3632.3627-.7289.7229-1.0888 1.0887-.055.0517-.0988.1141-.129.1833-.0302.0692-.046.1438-.0464.2191-.0004.0755.0145.1502.0439.2198.0294.0695.0726.1323.127.1846.232.2421.4723.4764.7112.7117.0554.0605.1248.1066.2022.1343.0773.0276.1602.0359.2416.0244.1477-.0245.2149.0414.2722.1643-.0547.0241-.1049.0467-.1557.068-.2375.0916-.4587.2206-.6555.3818-.1213.0973-.2186.2209-.2846.3617-.0658.1405-.0985.2944-.0957.4497.0038 1.6351.0015 3.27.0022 4.9049-.0012.0557.004.1116.0157.1661.0118.0456.0359.0871.0699.12.0339.0328.0762.0557.1222.0663.0459.0105.094.0083.1389-.0065.0447-.0148.0847-.0417.1153-.0774.05-.0588.0748-.1346.069-.2114-.0011-.2488-.0011-.4975 0-.7463 0-.0427.0072-.0856.0123-.1403.0328.0117.0651.025.0966.0397.3483.1797.7205.3088 1.1053.383.0397.0092.0801.0141.1207.0149.0615.0016.1216-.0187.1697-.0571.0479-.0386.0807-.0928.0924-.1531.0117-.0604.0017-.1229-.0285-.1764-.0301-.0536-.0781-.0949-.1358-.1164-.0567-.0214-.1191-.0268-.1769-.0454-.2561-.0818-.5151-.1564-.7655-.2531-.1204-.0539-.2328-.1242-.3342-.2088-.0533-.0396-.0957-.092-.1234-.1522-.0276-.0603-.0396-.1266-.035-.1928.0065-.2435.0013-.4874.0026-.7311.0028-.0396.0082-.0788.0162-.1177.1609.0787.3028.1575.452.2192.6634.2747 1.3599.3687 2.0728.3687.0204.0006.0406-.0007.0608-.0036.048-.0075.093-.0282.1298-.06.0367-.0318.0636-.0733.0776-.1198.0152-.0434.0178-.0903.0076-.1352-.0103-.0449-.0328-.0859-.0654-.1184-.0281-.0294-.0619-.0525-.0997-.0676-.0377-.015-.0783-.0216-.1188-.0197-.2537-.014-.5079-.0255-.7604-.0522-.3851-.0382-.7624-.1333-1.1194-.2824-.175-.0699-.3372-.1686-.4795-.292-.0439-.0313-.081-.0709-.1095-.1165-.0283-.0456-.0475-.0964-.0562-.1494-.0112-.2252-.0034-.4515-.0034-.7011.1327.069.2409.1316.3544.1832.1153.0525.2341.0978.3542.1395.1151.0401.232.0757.3502.1054.1231.0312.2481.0549.3732.0769.1249.0218.2508.0404.3769.0545.1262.0141.253.0242.3798.0308.1219.0064.2441.0078.366.0078.1272 0 .2544-.0016.3813-.0078.1269-.0063.2536-.0167.3798-.0312.1262-.0144.2517-.034.3765-.0565.125-.0225.2498-.0476.3726-.0787.1182-.0297.2355-.0642.3503-.1047.1196-.042.2375-.0901.3529-.1427.1121-.0509.2202-.1108.3325-.1682.0065.0163.0114.0332.015.0503.0009.4671.0016.9341.0021 1.4013.0004.0511-.0096.1018-.0298.1488-.0199.047-.0495.0895-.0866.1247-.0756.0749-.1582.1425-.2466.2018-.199.1233-.4151.2167-.6413.2774-.0974.0285-.1966.0514-.294.0799-.0501.0112-.0956.0375-.1302.0755-.0344.038-.0564.0857-.0627.1366-.0078.044-.0041.0894.0107.1316.0148.0423.0403.0798.074.1094.0337.0294.0745.0499.1183.059.0439.0092.0893.0069.1322-.0066.3589-.0746.7043-.2042 1.0235-.3842.0361-.021.0754-.0368.1333-.0648v1.7622c-.0018.0507-.0001.1015.0049.152.0085.0623.0397.1194.0872.1605.0477.0411.1087.0635.1716.0631.0631-.0004.1237-.0238.1707-.0656.0471-.0418.0773-.0994.085-.1618.0049-.0556.0064-.1115.0045-.1672v-3.4884c0-.4772-.0034-.9544.0013-1.4317.003-.1171-.0179-.2336-.0612-.3424-.0436-.109-.1086-.2078-.1914-.2907-.1-.1082-.2138-.2025-.3384-.2809Zm-1.4268-.4994c.0032.0398.003.0798-.001.1195-.0742.3968-.2719.7603-.5648 1.0385-.0293.0311-.065.0555-.1046.0717-.0397.016-.0823.0235-.125.0218-.3142-.0055-.6287-.0021-.9584-.0021-.2004-.5709-.5139-1.0958-.9219-1.5433l.7209-.7186c.5616.4817 1.1848.8797 1.9548 1.0125Zm1.4043-6.355c.1227.1241.2581.2611.3934.3985.0317.0323.062.0659.1001.1066-.0268.0331-.0492.0652-.0758.0931-.2319.2552-.5006.4746-.7972.651-.403.2285-.7523.5363-1.095.8473-.5695.5076-1.0858 1.0715-1.5413 1.6831-.0983.1344-.1897.274-.276.3994-.1568-.1557-.3101-.3076-.4487-.4452l3.7405-3.7338Zm-4.7059 5.8747c-.2475-.2434-.4971-.4908-.7288-.7298.3902-.3892.7657-.764 1.1464-1.144.2626.2225.507.4655.731.7268-.0566.1023-1.0087 1.0583-1.1486 1.1473v-.0003Zm4.7319 2.0297c-.075.0953-.1632.1797-.2619.2502-.2547.1692-.5396.2878-.8391.3495-1.0511.2438-2.0955.2361-3.1282-.1001-.2143-.0664-.4151-.17-.5932-.3061-.3114-.2442-.3157-.4731-.0094-.7181.2193-.1663.4693-.2873.7358-.3562.0186-.0017.0374-.001.0557.0024.1158.1732.2093.3602.2783.5566-.0494.0129-.0876.0204-.1241.0331-.0559.0188-.104.0551-.1372.1037-.0333.0486-.0498.1066-.0473.1653.0061.0611.033.1184.0765.1619.0435.0435.1006.0706.162.0768.0455.0038.0914.0049.1371.0036h2.3946c.0458.0016.0915.0002.1371-.0041.0634-.0077.1217-.0385.164-.0866.0421-.0478.0651-.1096.0647-.1734-.0006-.0638-.0245-.1252-.0674-.1725-.0429-.0473-.1018-.0773-.1653-.084-.0533-.0064-.1072-.0078-.1727-.0123l.3309-.6057c.3278.0972.6451.213.9046.4472.041.0379.0771.0807.1074.1277.0381.0488.0587.1091.0581.1712-.0005.0619-.022.122-.061.1702v-.0003Z"/><path d="M40.7932 18.9857c-.1361-.0139-.2732-.0135-.4091.0016-.0638.0076-.1224.0389-.1645.0874-.0421.0485-.0647.1111-.0633.1753.0034.0667.0313.1299.0784.1773.0473.0472.1103.0754.177.0789.0605.005.1217.0009.1828.0009.0557 0 .1117.0028.1674-.0006.0665-.0015.1301-.0275.1785-.0732.0485-.0455.0784-.1076.0839-.1739.0047-.0667-.0169-.1327-.0601-.1837-.0431-.0512-.1045-.0835-.171-.09ZM38.8268 17.0324c-.0669-.0057-.1333.0151-.1846.0582-.0514.0431-.0835.1047-.0893.1713-.0151.1307-.0158.2626-.0022.3933.0022.0343.0114.0678.0269.0985.0155.0309.0371.0582.0633.0803.0264.0222.057.0388.09.049.0328.0101.0675.0135.1018.0098.0664-.0057.1282-.0362.173-.0854.0449-.0493.0694-.1137.069-.1801.0031-.0556.0004-.1114.0004-.1671 0-.0556.003-.1115-.0005-.167-.0014-.0665-.0275-.1301-.0734-.1783-.0458-.0481-.108-.0777-.1744-.0825ZM40.1742 17.5988c-.032.0027-.0629.0125-.0905.0287-.1289.1124-.2498.2338-.3619.3629-.0721.0892-.0347.223.0499.3031.0405.0434.0956.0701.1549.0752.059.005.1179-.012.1651-.0478.1128-.094.2176-.1974.3129-.309.0316-.0375.0502-.0841.0531-.1329.0029-.0489-.01-.0973-.0368-.1383-.0237-.0443-.0594-.0812-.1031-.1063-.0435-.025-.0933-.0374-.1436-.0356ZM46.8124 19.325c-.019-.0002-.0379.0038-.0552.0117-.0174.0079-.0328.0193-.0452.0337-.0125.0143-.0217.0313-.027.0495-.0054.0183-.0067.0375-.0039.0562-.0001.0178.0034.0353.0103.0515.007.0164.0172.031.0299.0432.013.0121.0281.0215.0449.0275.0166.006.0343.0086.0519.0074.0178-.0011.035-.0057.0509-.0136.0158-.0078.0299-.0187.0416-.0321.0116-.0134.0204-.0289.0261-.0456.0055-.0168.0076-.0345.0063-.0521.0007-.0176-.0022-.0352-.0084-.0519-.0062-.0165-.0157-.0316-.0278-.0444-.0123-.0128-.0269-.023-.043-.03-.0162-.0072-.0337-.0109-.0514-.011ZM28.1887 18.1956c.0354 0 .0694-.0137.0948-.0384.0253-.0247.0402-.0582.0413-.0936-.0037-.0325-.0182-.0628-.0411-.0859-.0229-.0233-.0531-.038-.0856-.0419-.0174 0-.0348.0034-.051.01s-.031.0165-.0434.0289c-.0125.0123-.0223.0271-.0291.0432-.0068.0162-.0101.0335-.0101.0512.0012.0327.0146.0638.0376.0873.023.0234.0539.0373.0866.0392ZM31.2303 26.3374c-.0353-.0001-.0693.0135-.0948.0379-.0255.0246-.0403.058-.0417.0933.0038.0323.0183.0624.0411.0857.0229.0233.0528.0384.0849.0429.0353-.0005.0691-.0146.094-.0397.0249-.0249.0392-.0588.0393-.094-.0003-.0329-.0134-.0642-.0362-.0876-.0229-.0235-.0539-.0372-.0866-.0385ZM28.3266 20.9166c-.001-.0345-.0158-.0672-.0409-.0909-.0251-.0237-.0587-.0364-.0932-.0354-.0344.0012-.0671.0158-.0908.0409-.0236.0251-.0364.0587-.0354.0933.0005.017.0043.0338.0114.0495.007.0155.0171.0296.0295.0413.0124.0117.0272.0208.0431.0269.016.0061.033.0089.0501.0085.0171-.0006.0338-.0044.0495-.0115.0156-.007.0296-.017.0413-.0294.0117-.0124.0209-.0271.0269-.043.0061-.0161.0091-.033.0085-.0502ZM44.1942 25.8311c-.0352.0025-.0681.0181-.0925.0437-.0244.0255-.0384.0592-.0392.0946.0028.0327.0178.0633.042.0856.0243.0221.0559.0346.0889.0347.0328.0006.0646-.0117.0887-.034.0241-.0224.0386-.0533.0405-.086.0012-.0354-.0116-.07-.0356-.0958-.0241-.0261-.0574-.0414-.0928-.0428ZM44.6752 25.2996c-.0328-.001-.0646.0107-.0892.0323-.0245.0219-.0399.0522-.0428.0848-.0019.0352.0102.0698.0335.0963.0234.0265.0561.0429.0914.0455.0326-.0015.0637-.0142.0881-.0359.0246-.0219.0408-.0514.0462-.0835.0009-.0353-.0117-.0694-.0354-.0955-.0239-.0259-.0567-.0417-.0918-.044ZM32.3484 11.7689c.0327-.0021.0636-.0158.087-.0388.0234-.0228.038-.0534.0408-.086-.0009-.0352-.0151-.069-.0399-.0942-.0247-.0251-.058-.04-.0932-.0416-.0326.0024-.0634.0165-.0865.0396-.0231.0232-.0372.0538-.0398.0865-.0004.0175.0026.035.0091.0513.0063.0164.0159.0313.0282.0439.0124.0125.027.0225.0431.0292.0162.0067.0337.0103.0512.0101ZM33.6132 27.8907c-.0327.0025-.0631.0174-.085.042-.0219.0244-.0333.0564-.032.0893.002.0327.0158.0634.0388.0868.0231.0233.0537.0374.0864.0397.0351-.0017.0684-.0167.0932-.0417.0249-.0249.0394-.0582.0409-.0933-.0029-.035-.0196-.0674-.0461-.0904-.0265-.023-.0612-.0347-.0962-.0324ZM41.9193 27.5635c-.033.0014-.0643.0153-.0873.039-.0231.0236-.0363.0552-.037.0882-.0008.033.0112.0651.0334.0897.022.0245.0526.0399.0854.0427.0354.0014.07-.011.0964-.0347.0263-.0237.0425-.0565.0449-.0919-.0015-.0353-.0165-.0686-.0417-.0933-.0252-.0246-.0588-.0389-.0941-.0397ZM35.6805 28.5332c-.0328-.0019-.0651.0088-.0904.0299-.0252.021-.0416.0507-.0459.0833-.0034.026.0012.0523.0131.0756.0117.0234.0303.0427.0533.0553.0228.0125.0491.018.0752.0155.026-.0024.0507-.0127.0709-.0295.02-.0166.0347-.039.0419-.0643.0072-.0251.0066-.0519-.0016-.0767-.0082-.0248-.0237-.0467-.0444-.0626-.0209-.016-.046-.0251-.0721-.0265ZM34.267 10.8157c.0325-.004.0625-.0185.0859-.0412.0233-.0227.0387-.0526.0433-.0848-.0003-.0354-.0142-.0692-.0392-.0943-.0248-.0251-.0585-.0395-.0938-.0402-.0176.0001-.0348.0041-.0507.0113-.0161.0072-.0304.0174-.0422.0304-.0119.013-.0209.0282-.0267.0447-.0056.0167-.008.0342-.0067.0516.0038.0325.0189.0627.0427.0851.0238.0224.0549.0357.0874.0374ZM37.7807 10.267c.0352-.0002.0689-.0146.0937-.0396.025-.0251.0388-.0589.039-.0942-.0006-.0175-.0046-.0347-.0119-.0506-.0073-.016-.0178-.0302-.0309-.0419-.0129-.0117-.028-.0207-.0447-.0264-.0165-.0058-.034-.0082-.0515-.0069-.0324.0041-.0623.0196-.0843.0437-.022.0241-.0348.0553-.0358.088.0035.0325.018.0628.0409.0859.023.0233.0532.0381.0855.042ZM29.0674 23.5088c-.0357-.0007-.0701.0127-.0962.037-.026.0242-.0416.0576-.0435.0932.0021.033.0158.0641.0387.088.0228.0238.0534.0388.0863.0423.034.0013.0673-.011.0925-.034.0252-.023.0405-.055.0423-.0891.002-.034-.0096-.0676-.032-.0932-.0224-.0257-.0542-.0415-.0881-.0442ZM37.8146 28.6912c-.0328.0019-.0639.0152-.0879.0376-.024.0226-.0392.0526-.0433.0853-.0006.0353.0128.0694.0371.0949.0242.0257.0577.0407.0929.0419.0329 0 .0645-.0124.0886-.0347.0241-.0222.0389-.0528.0414-.0856.0006-.0354-.0124-.0696-.0365-.0956-.024-.0259-.0571-.0417-.0923-.0438ZM39.217 10.4253c.0327-.0031.0633-.0178.0862-.0413.0228-.0237.0366-.0546.0387-.0874-.0012-.0356-.0162-.0693-.0418-.0938-.0257-.0247-.0598-.0384-.0954-.0382-.0328.0025-.0636.017-.0861.0408-.0227.0239-.0357.0553-.0366.0882 0 .0176.0034.0351.0102.0513.0068.0162.0168.0309.0295.0432.0125.0122.0275.0218.0438.0283.0164.0064.034.0095.0515.0089ZM46.1401 22.8425c-.0353.0009-.0688.0154-.0935.0406-.0247.0253-.0386.0591-.0388.0944.0003.0328.0133.0643.0363.0877.0228.0236.054.0372.0868.0381.0353.0003.0694-.0134.0947-.0381.0253-.0247.0399-.0582.0407-.0935-.0038-.0326-.0183-.0627-.041-.0862-.0229-.0234-.0528-.0385-.0852-.043ZM46.6523 18.7373c.0009.0328.0139.0643.0367.0881.0229.0237.0537.0382.0866.0404.0354.0004.0695-.013.0953-.0373.0258-.0242.0414-.0575.0432-.0929-.0023-.0327-.0158-.0637-.0385-.0876-.0227-.0237-.0532-.0388-.0859-.0423-.0354 0-.0695.0137-.095.0382-.0256.0246-.0408.058-.0424.0934ZM42.5604 27.1983c-.0342-.0056-.0691.0024-.0973.0224-.0282.0202-.0474.0506-.0531.0848-.0057.0342.0023.0692.0225.0974.02.0282.0504.0473.0847.053.0341.0057.0691-.0024.0973-.0224.0282-.0201.0474-.0506.053-.0847.0057-.0343-.0024-.0691-.0224-.0975-.0201-.0282-.0505-.0472-.0847-.053ZM46.7847 20.0642c-.0328.0023-.0637.0158-.0873.0382-.0239.0224-.039.0526-.0429.0851-.0014.0259.0051.0517.0185.074.0134.0223.0332.0401.0568.0509.0235.011.0499.0145.0757.0103.0255-.0042.0494-.0159.0683-.0338.0189-.0179.032-.0411.0375-.0665.0056-.0253.0035-.0519-.0061-.0761-.0096-.0241-.0262-.0449-.0476-.0595-.0216-.0147-.047-.0224-.0729-.0226ZM45.1082 24.7278c-.0347-.0002-.0679.0132-.0926.0376-.0247.0243-.0387.0574-.0389.0921-.0002.0346.0132.068.0376.0925.0243.0247.0574.0387.0921.039.0327-.0012.064-.0141.0881-.0364.024-.0224.0391-.0528.0425-.0853.0006-.0354-.0126-.0696-.0365-.0955-.024-.026-.057-.0418-.0923-.044ZM32.9833 27.5681c-.0333.0018-.0648.0159-.0883.0394-.0236.0235-.0377.055-.0395.0882-.0007.0333.0114.0658.034.0903.0227.0245.0537.0393.0871.0413.0178.0004.0354-.0025.0521-.009.0166-.0064.0318-.0161.0445-.0285.0129-.0123.0232-.0271.0302-.0434.0071-.0164.0109-.0339.0112-.0518-.0041-.0328-.0194-.0634-.0433-.0864-.0239-.0232-.055-.0373-.088-.0401ZM40.619 28.1489c-.0327.002-.0638.0153-.0876.0377-.0238.0223-.0391.0524-.0432.0849-.0009.0338.0113.0667.034.0916.0227.0251.0543.0402.088.0425.0337.0021.067-.0089.0928-.0308.0257-.0218.0421-.0528.0454-.0864 0-.0353-.0134-.0694-.0373-.0952-.024-.0258-.057-.0416-.0921-.0443ZM39.2399 28.5305c-.0175-.0001-.0349.0031-.051.0098-.0162.0067-.0309.0166-.043.0291-.0123.0126-.0219.0275-.0281.0438-.0062.0163-.009.0338-.0083.0513.0022.0326.0162.0633.0395.0864.0231.023.0537.037.0863.0392.0352-.0019.0684-.017.0931-.0423.0245-.0252.0386-.0588.0396-.094-.0027-.0326-.0172-.0632-.0408-.0858-.0235-.0227-.0547-.0361-.0873-.0375ZM35.6478 10.4304c.0329-.0006.0643-.0133.088-.036.0239-.0226.0381-.0533.0402-.0862.0002-.0355-.0134-.0696-.0379-.0954-.0244-.0257-.0578-.0409-.0932-.0426-.0327.0028-.0635.0167-.087.0396-.0236.023-.0385.0532-.0423.0859-.0003.0175.0029.035.0094.0512.0066.0163.0162.0311.0286.0437.0123.0125.027.0224.043.0293.0163.0068.0336.0103.0512.0105ZM41.2575 11.0665c.0353-.0011.0687-.0159.0934-.0412.0247-.0254.0385-.0592.0388-.0946-.0005-.0172-.0043-.0344-.0113-.0502-.0072-.016-.0174-.0302-.0301-.0421-.0125-.0118-.0276-.021-.0438-.027-.0162-.0061-.0336-.0088-.0509-.0081-.0174.0009-.0344.0051-.0501.0124-.0158.0075-.0298.0181-.0413.0309-.0116.013-.0205.0281-.0261.0444-.0058.0165-.008.0339-.0069.0512.0028.0328.0173.0634.0409.0862.0235.0227.0546.0364.0874.0381ZM32.9466 11.401c.0175.0014.0351-.0007.0519-.006.0168-.0055.0321-.0141.0455-.0257.0134-.0114.0243-.0254.0322-.041.0079-.0158.0125-.0329.0137-.0505.0008-.0171-.0017-.0342-.0077-.0502-.0057-.016-.0148-.0308-.0262-.0433-.0116-.0127-.0254-.0229-.0409-.0301-.0154-.0073-.0321-.0114-.0492-.0122-.0171-.0007-.0341.0018-.0502.0077-.0159.0058-.0309.0147-.0434.0262-.0126.0115-.0229.0254-.0301.0409-.0072.0154-.0113.0322-.0121.0493-.0004.0328.0113.0646.0327.0895.0214.0248.0512.0411.0838.0454ZM31.7615 12.1842c.0327-.0027.0633-.0165.087-.039.0236-.0226.0387-.0526.0429-.0852.0001-.0353-.0136-.0691-.0382-.0944-.0247-.0254-.0583-.0397-.0935-.0403-.0328-.0001-.0643.0124-.088.035-.0237.0227-.0376.0536-.0388.0863-.0006.0175.0024.035.0084.0513.0061.0164.0156.0313.0274.0442.012.0128.0264.0231.0423.0303.0159.0072.0332.0113.0505.0118ZM29.3908 14.8441c.0341-.0003.0667-.014.0909-.0381.0241-.0241.038-.0567.0384-.0908.0004-.0343-.0126-.0672-.0361-.092-.0236-.0245-.056-.0391-.0901-.0402-.0346-.0004-.068.013-.0928.0371-.0247.0241-.039.0571-.0394.0918-.0003.0347.013.068.0371.0928.0243.0248.0573.0389.092.0394ZM29.0456 15.4745c.0352-.0009.0688-.0151.094-.04.0253-.0245.0401-.0579.0418-.0932-.0012-.034-.0157-.0663-.0405-.0897-.0247-.0234-.0577-.0362-.0917-.0355-.0341.0006-.0665.0147-.0904.0391-.0238.0242-.0371.0569-.0369.0911.0014.0327.0148.0638.0375.0874.0228.0237.0534.0381.0862.0408ZM28.7591 16.1263c.0326-.0008.0638-.0142.0869-.0372.0231-.023.0368-.0539.0379-.0866.0004-.0352-.013-.0692-.0375-.0948-.0244-.0253-.058-.0402-.0932-.041-.0324.0038-.0626.0183-.0859.0412-.0233.023-.0382.0531-.0423.0854.0003.0354.0145.0693.0396.0941.0251.025.0591.0389.0945.0389ZM28.3128 17.4929c.0175.0015.0351-.0005.0517-.006.0168-.0055.0322-.0142.0455-.0258.0131-.0115.0239-.0256.0315-.0414.0078-.016.0122-.033.013-.0507.0004-.0175-.0025-.0349-.0089-.0513-.0063-.0165-.0158-.0314-.0279-.0441-.0123-.0127-.0268-.0229-.0429-.0299-.016-.0069-.0334-.0108-.051-.011-.0327.0022-.0636.0162-.0872.0392-.0235.0228-.0382.0534-.0413.0861.0002.0329.0121.0645.0337.0893.0216.0247.0514.0409.0838.0456ZM46.5665 18.0227c.0021.0351.0173.0681.0426.0925.0252.0246.0586.0388.0937.0401.0352-.0026.0679-.0191.091-.0456.0231-.0268.0348-.0613.0324-.0966-.0031-.0326-.0186-.0627-.0433-.0843-.0246-.0215-.0567-.0329-.0894-.0315-.0324.0026-.0631.0165-.0864.0395-.0233.0229-.0375.0533-.0406.0859ZM46.4335 17.3218c.0001.0176.0036.0353.0107.0516.0069.0164.0172.031.0299.0433.0128.0123.028.0219.0445.0282.0167.0062.0344.0092.0521.0085.033-.0047.0632-.0213.0849-.0464.0217-.0253.0335-.0574.0334-.0908-.0023-.0332-.0172-.0643-.0417-.0868-.0247-.0224-.057-.0345-.0903-.0338-.0165-.0003-.033.0028-.0482.009-.0153.0062-.0292.0157-.0408.0274-.0116.0118-.0206.0259-.0265.0413-.0061.0155-.0086.0319-.008.0485ZM45.5037 24.1275c-.0333-.0005-.0656.0117-.0904.0339-.0248.0222-.0405.0531-.0436.0862-.0013.0174.0009.0347.0065.0511.0054.0165.0142.0317.0257.0445.0115.0131.0255.0237.0411.031.0157.0075.0326.0119.05.0126.0173.0008.0347-.002.0509-.0079.0163-.0061.0311-.0154.0437-.0272.0127-.0119.0227-.0262.0298-.042.0069-.016.0107-.033.011-.0504-.0016-.0333-.0151-.0647-.038-.089-.0228-.0241-.0536-.0393-.0867-.0428ZM33.6051 11.0806c.0244-.0015.0478-.0098.0676-.0243.0197-.0144.0349-.0343.0437-.0572.0086-.0228.0107-.0476.0056-.0716-.0051-.0238-.0169-.0458-.0341-.0632-.0172-.0173-.0391-.0295-.0629-.0347-.0238-.0052-.0488-.0035-.0717.005-.0229.0084-.043.0234-.0575.043-.0147.0196-.0234.043-.0251.0674 0 .0176.0034.0352.01.0517.0068.0164.0165.0313.0291.044.0125.0126.0273.0226.0437.0295.0163.0069.034.0103.0516.0104ZM45.4927 14.8106c.0331-.0027.0642-.0179.0865-.0427.0224-.0247.0344-.0571.0335-.0904-.0008-.0334-.0142-.0652-.0379-.0888-.0234-.0237-.0552-.0374-.0884-.0384-.0171.0003-.034.0041-.0497.011-.0156.0069-.0296.0169-.0414.0293-.0119.0124-.0211.027-.0273.0429-.0062.0159-.0091.033-.0086.0501.0003.0172.0041.0338.011.0496.0069.0155.017.0298.0294.0415.0122.0118.0269.0211.0428.0272.016.006.033.009.0501.0087ZM29.7836 14.2397c.0334-.0008.0651-.0145.089-.0379.0237-.0234.0376-.055.0389-.0884-.0007-.0178-.0049-.0351-.0123-.0513-.0074-.0161-.018-.0306-.031-.0428-.0131-.012-.0283-.0214-.0451-.0275-.0167-.0062-.0343-.009-.0521-.0083-.0332.0031-.0641.0188-.0861.0439-.022.0249-.0337.0575-.0325.0909.002.0333.0168.0645.0412.087.0244.0226.0567.035.09.0344ZM30.6885 13.1371c.0328.0002.0647-.0116.0892-.0335.0246-.0218.0401-.052.0435-.0847.0017-.0353-.0103-.0698-.0336-.0965-.0234-.0265-.0561-.043-.0912-.0457-.0343-.0005-.0672.0126-.0918.0361-.0247.0237-.0391.056-.0401.0901-.001.0342.0114.0673.0346.0926.0231.0249.0552.0399.0894.0416ZM30.2375 25.3059c-.0176-.0001-.0351.0034-.0514.0103-.0163.0069-.0311.0169-.0433.0296-.0124.0126-.022.0277-.0285.0442-.0064.0165-.0093.0341-.0088.0517.0014.033.0155.0643.0394.0875.0237.0229.0555.0359.0885.0362.0332-.002.0644-.0161.0878-.0396.0232-.0236.0372-.0549.039-.088-.0011-.0332-.0141-.0648-.0365-.089-.0226-.0243-.0532-.0395-.0862-.0429ZM43.1001 12.1597c.0173.0008.0346-.0019.0509-.0078.0162-.0059.0312-.0151.0439-.0268.0127-.0117.0228-.0259.03-.0417.0072-.0158.011-.0329.0116-.0502.0004-.0174-.0027-.0346-.0091-.0507-.0062-.016-.0156-.0307-.0277-.0431-.012-.0126-.0265-.0224-.0425-.0292-.0159-.0066-.033-.0102-.0503-.0103-.0333.001-.065.0147-.0885.0382-.0235.0236-.037.0553-.0379.0884-.0008.0335.011.0658.0333.0904.0223.0249.0532.0401.0863.0428ZM31.7865 26.7934c-.0178-.0009-.0355.0019-.0522.0081-.0168.0062-.032.0158-.0448.0281-.013.0123-.0233.0269-.0303.0433-.007.0162-.0106.034-.0108.0518.003.0331.0175.0641.0412.0874.0237.0234.0549.0375.088.0399.0333-.0014.0649-.0151.0886-.0384.0237-.0234.0378-.0547.0398-.088.0014-.0332-.0103-.0658-.0328-.0905-.0223-.0247-.0534-.0398-.0867-.0417ZM41.9123 11.3805c.033-.003.0636-.0182.0859-.0427.0223-.0244.0347-.0564.0346-.0896-.0021-.0333-.0168-.0644-.0413-.0871-.0244-.0227-.0566-.0352-.09-.0349-.0334.0006-.0653.0138-.0891.0371-.0239.0234-.0377.055-.039.0883.0003.0178.0043.0351.0116.0513.0071.0161.0175.0306.0305.0428.0129.0119.0282.0213.0448.0272.0166.006.0344.0086.052.0076ZM34.9815 28.374c-.0332-.0019-.0658.009-.0913.0303-.0255.0212-.042.0512-.0464.0842-.0011.0358.0117.0706.0361.097.0243.0262.058.0419.0938.0435.0331-.0017.0645-.0153.0884-.0383.024-.0228.0389-.0536.0422-.0866-.0001-.0332-.013-.0652-.0357-.0894-.0228-.0241-.054-.0387-.0871-.0407ZM28.081 19.6242c.0338.0001.0665-.0129.0909-.0363.0246-.0235.0389-.0555.0402-.0895.0013-.0339-.0107-.0669-.0334-.0921-.0227-.0252-.0543-.0406-.088-.043-.0329-.0003-.0646.0114-.0891.0331-.0247.0215-.0404.0515-.0443.0841-.0019.0352.0098.0698.0328.0967.0232.0268.0556.0436.0909.047ZM39.916 10.5833c.033-.0028.0641-.0178.0871-.0419.0228-.0241.0361-.0557.0372-.0888-.0033-.033-.0182-.0639-.0422-.0869-.024-.0231-.0553-.0368-.0884-.0388-.0178.0001-.0353.004-.0515.0113-.0163.0072-.0309.0178-.0429.0307-.0119.0131-.0211.0287-.0269.0454-.0058.0168-.0082.0346-.0068.0524.0026.0331.0182.064.0433.0858.0251.0218.0579.0328.0911.0308ZM36.3628 10.3217c.0333-.0026.0643-.018.0865-.0431.0221-.025.0338-.0574.0324-.0908-.0011-.0335-.0154-.0649-.0396-.0879-.0243-.023-.0566-.0354-.0898-.0347-.0333.0017-.0648.0152-.0885.0384-.0239.023-.0385.054-.0411.0871.0018.0357.0174.0694.0435.0939.0263.0244.0608.0378.0966.0371ZM37.071 10.2685c.0326-.0031.0631-.0172.0863-.0401.0234-.0228.0381-.0531.0418-.0856.0001-.0354-.0137-.0695-.0387-.0946-.0248-.0252-.0586-.0395-.094-.0399-.0328.0004-.0641.0135-.0875.0365-.0232.0232-.0366.0543-.0373.087-.0009.0177.0018.0352.008.0517.0061.0165.0155.0315.0276.0442.0122.0129.0267.023.0428.0299.016.0071.0335.0108.051.0109ZM46.3752 16.7629c.0332-.0024.0642-.0175.0866-.042.0224-.0246.0347-.0567.0341-.09-.0005-.0333-.0138-.065-.0369-.0889-.0231-.0238-.0546-.0379-.0879-.0393-.0177.0005-.0351.0048-.0513.0123-.0161.0073-.0305.0179-.0425.031-.0121.0131-.0213.0283-.0273.045-.0061.0167-.0086.0345-.0078.0521.003.0332.0184.0638.043.0861.0246.0223.0567.0342.09.0337ZM46.3752 22.1697c-.0328.001-.0641.0145-.0874.0378-.0233.0231-.0368.0543-.038.0871-.0009.0327.0101.0646.0312.0897.0212.025.0509.0412.0834.0454.0354.0024.0702-.0093.0968-.0325.0268-.0233.0432-.056.0457-.0914 0-.0353-.0136-.0693-.0383-.0947-.0246-.0253-.0581-.0402-.0934-.0414ZM46.1139 16.0899c.0177.0009.0354-.0018.0519-.008.0166-.0062.0317-.0157.0445-.0279.0129-.0123.023-.0271.0298-.0433.007-.0164.0104-.0339.0103-.0516.0004-.0335-.0126-.0657-.0358-.0897-.0233-.0241-.0552-.0381-.0886-.0388-.0334-.0007-.0659.0118-.0901.0348-.0244.023-.0387.0547-.0398.0882-.0006.0333.0112.0654.0329.0906.0217.0252.0519.0414.0849.0457ZM43.669 12.6151c.0329-.0044.0629-.0207.0846-.0458.0215-.0251.0332-.0574.0325-.0904-.0007-.0333-.0147-.065-.0385-.088-.024-.0232-.0562-.0358-.0894-.0354-.0332.0012-.0645.0149-.0877.0385-.0232.0235-.0366.0551-.0373.0883-.0003.0177.0031.0354.0099.0519.0068.0163.0168.0311.0295.0435.0128.0126.0277.0223.0444.0287.0166.0063.0343.0093.052.0087ZM45.091 14.208c.0332.0008.0655-.0115.0896-.0342.0241-.0227.0385-.054.0396-.0871.0026-.0336-.0084-.0666-.0303-.0921-.0219-.0254-.053-.0411-.0864-.0436-.0335-.0024-.0666.0085-.092.0303-.0255.022-.0412.0531-.0437.0865-.0024.0176-.0011.0355.0039.0524.0051.0171.0137.0328.0254.046.0117.0134.0262.024.0425.0312.0162.0072.0337.0108.0514.0106ZM30.2123 13.6699c.0251.0001.0496-.0072.0707-.021.021-.0139.0373-.0336.0471-.0567.0097-.0232.0124-.0487.0077-.0732-.0048-.0247-.0166-.0474-.0343-.0653-.0176-.0179-.0402-.0302-.0647-.0353-.0245-.0051-.0501-.0028-.0733.0065-.0233.0095-.0433.0255-.0576.0463-.0141.0207-.0217.0451-.022.0703.0016.0332.0153.0646.0387.0883.0232.0237.0546.038.0877.0401ZM44.1746 13.1077c.0333.001.0658-.0111.09-.0338.0244-.0229.0387-.0545.0398-.0878.001-.0332-.0103-.0657-.0319-.0911-.0214-.0253-.0516-.0418-.0846-.0462-.0178-.0009-.0355.002-.0522.0082-.0166.0062-.0317.0159-.0447.0282-.0128.0122-.0228.027-.0299.0434-.0069.0164-.0104.034-.0103.0518-.0004.0165.0027.033.0086.0483.0061.0154.0151.0294.0267.0412.0115.0119.0254.0213.0404.0278.0153.0065.0316.0099.0481.01ZM44.6588 13.6401c.0332 0 .065-.0131.0886-.0365.0235-.0234.0368-.0552.0369-.0884.0009-.0164-.0017-.033-.0074-.0484-.0057-.0155-.0144-.0296-.0259-.0418-.0112-.0118-.0249-.0214-.04-.028-.0152-.0065-.0316-.01-.0481-.01-.0172-.0016-.0347.0005-.0512.006-.0165.0057-.0316.0146-.0446.0263-.0128.0115-.0232.0258-.0304.0416-.0072.0159-.0112.033-.0113.0505-.0003.0173.003.0346.0096.0507.0066.016.0166.0305.029.0426.0126.012.0275.0214.0438.0275.0163.0061.0337.0089.051.0079ZM45.8423 23.5015c-.0333-.0003-.0655.0121-.0899.0347-.0244.0224-.0393.0536-.0417.0867 0 .0178.0035.0351.0104.0515.0069.0163.0171.031.0299.0433.0127.0124.0278.022.0442.0283.0166.0064.0341.0093.0519.0088.0332-.0012.0647-.0153.0877-.0394.023-.0241.0354-.0563.0348-.0895-.0013-.0332-.0151-.0646-.0388-.0878-.0237-.0231-.0554-.0362-.0885-.0366ZM40.6006 10.7965c.0166-.0007.033-.0047.048-.0117.0151-.0071.0287-.017.04-.0292.0112-.0124.0198-.0267.0256-.0423.0057-.0157.0082-.0323.0075-.049-.0007-.0166-.0047-.033-.0117-.0479-.0071-.0151-.0171-.0288-.0293-.0399-.0123-.0113-.0267-.0201-.0424-.0257-.0155-.0058-.0321-.0082-.0487-.0075-.0332.0013-.0645.015-.0883.0381-.0237.023-.0381.0542-.0404.0872.0002.0177.004.0352.0112.0516.0072.0162.0177.0307.0309.0427.0131.012.0284.0212.0452.0269.017.0058.0347.0081.0524.0067ZM34.9431 10.5975c.0175 0 .0349-.0034.0511-.0102.0162-.0068.0309-.0165.0433-.0289.0124-.0124.0222-.0272.0289-.0433.0066-.0164.0101-.0336.0101-.0512-.0008-.0327-.0141-.0639-.0372-.0869-.0233-.0231-.0543-.0363-.087-.0371-.0176-.0007-.035.0022-.0515.0084-.0163.0063-.0313.0158-.044.0279-.0127.0121-.0227.0266-.0296.0429-.0069.016-.0104.0334-.0106.0509.0037.0324.0181.0627.0411.0857.0229.0233.053.038.0854.0418ZM46.5669 21.4819c-.025.0007-.0492.0089-.0697.0233-.0204.0145-.0362.0347-.0453.058-.0088.0234-.0108.0489-.0055.0734.0055.0244.0181.0467.0363.0641.018.0173.0409.0289.0656.0332.0246.0044.05.0015.0729-.0087.0231-.01.0426-.0265.0561-.0477.0135-.021.0204-.0457.0202-.0706-.0027-.0332-.0175-.0643-.0416-.0873-.024-.023-.0557-.0364-.089-.0377ZM39.9267 28.3691c-.0329.0023-.0636.0173-.0856.042-.0222.0247-.0336.057-.0322.09 0 .0164.0033.0326.0098.0477.0064.0151.0158.0287.0276.0402.0118.0112.0258.0201.041.0259.0154.0059.0318.0086.0481.0079.0332.0001.0649-.0127.0886-.0358s.0374-.0545.0382-.0876c.0003-.0176-.0031-.0351-.0099-.0513-.0066-.0164-.0167-.0311-.0294-.0433-.0127-.0123-.028-.0217-.0445-.0278-.0165-.0062-.0341-.0089-.0517-.0079ZM30.6935 25.8436c-.0169.0012-.0334.0057-.0486.0136-.0151.0078-.0285.0185-.0394.0315-.011.0131-.019.0282-.0239.0445-.005.0163-.0065.0333-.0047.0503.0018.0169.0071.0332.0154.048.0082.0148.0194.028.0328.0384.0134.0103.0288.0181.0453.0223.0165.0044.0336.0053.0505.0028.0166-.0017.0327-.0066.0472-.0145.0147-.0079.0277-.0188.0381-.0318.0106-.0129.0184-.0277.023-.0438.0048-.0159.0064-.0327.0045-.0494-.0018-.0165-.0069-.0325-.0149-.0472-.0081-.0145-.0189-.0275-.0319-.038-.0131-.0102-.0279-.018-.044-.0227-.0161-.0045-.0329-.0059-.0494-.004ZM36.3774 28.6416c-.0332.002-.0645.0161-.0879.0396-.0235.0236-.0375.0549-.0395.088-.0004.026.0069.0512.0212.073.0139.0217.0342.0386.0581.0486.0238.01.05.0127.0753.0078.0254-.005.0488-.0174.067-.0357.0182-.0183.0306-.0416.0355-.067.0048-.0254.0021-.0516-.008-.0754-.0102-.0237-.0271-.044-.0488-.058-.0217-.0141-.0471-.0213-.0729-.0209ZM43.682 26.3334c-.0334-.0016-.066.0097-.0912.0316-.0251.0218-.0409.0527-.0439.086-.0004.0176.0028.0353.0095.0519.0064.0164.0163.0315.0287.044.0126.0126.0275.0226.0439.0293.0163.0068.034.0102.0517.0101.0333-.0005.0651-.014.0885-.0378.0234-.0237.0365-.0557.0364-.089.0005-.0165-.0023-.033-.0082-.0484-.0061-.0152-.0151-.0293-.0267-.041-.0115-.0119-.0254-.0212-.0406-.0275-.0152-.0062-.0317-.0093-.0481-.0092ZM37.1014 28.6921c-.0178 0-.0353.0037-.0518.0109-.0162.0071-.0309.0173-.0432.0303-.0121.013-.0215.0282-.0277.045-.0061.0166-.0088.0344-.0078.0522.002.033.0168.064.0412.0863s.0565.0341.0897.0331c.033-.001.0644-.0148.0874-.0386.023-.0237.0358-.0554.0358-.0886-.001-.0331-.0141-.0648-.0368-.0888-.0228-.0241-.0537-.0391-.0868-.0418ZM43.1195 26.7884c-.0333.0017-.0646.0159-.0874.0401-.023.0239-.0359.0559-.036.0892.0021.0332.0164.0642.0403.0873.0237.0231.0553.0365.0885.0375.0332-.0002.0651-.0131.0892-.0361.0241-.0228.0387-.054.0406-.0871.0007-.0178-.0025-.0356-.0091-.0519-.0067-.0165-.0167-.0313-.0294-.0437-.0127-.0123-.0279-.0219-.0445-.028-.0168-.006-.0344-.0086-.0522-.0073ZM32.3769 27.2018c-.0178-.0008-.0356.0018-.0522.0081-.0166.0062-.0319.0157-.0447.028-.0128.0124-.023.0272-.0298.0436-.0069.0164-.0101.0341-.01.0519-.0007.0163.0019.033.0076.0484.0058.0155.0147.0296.0263.0416.0114.0118.0251.0213.0403.0277.0152.0065.0316.0099.0481.0098.0165.0005.0329-.002.0484-.0078s.0297-.0145.0417-.0259c.0121-.0112.0217-.0248.0286-.0398.0068-.0151.0105-.0313.0109-.0479.0014-.0332-.0097-.0658-.031-.0911-.0213-.0254-.0514-.0421-.0842-.0466ZM31.2144 12.6406c.0331-.0029.064-.0181.0864-.0426.0225-.0244.035-.0564.035-.0897-.0001-.0178-.0041-.0353-.0113-.0515-.0073-.0162-.018-.0306-.0311-.0424-.0133-.0119-.0288-.0209-.0457-.0264-.0168-.0057-.0347-.0075-.0524-.0058-.0165.0014-.0325.0061-.0471.0138-.0145.0078-.0275.0182-.0379.031-.0106.0127-.0185.0275-.0231.0433-.0048.0158-.0062.0325-.0044.0488.0025.0332.0175.0641.0419.0866.0245.0224.0565.035.0897.0349ZM28.1009 18.9044c.0174.0017.035-.0001.0516-.0056.0167-.0055.032-.0143.0451-.026.0132-.0117.0236-.0259.0308-.0419.0073-.016.0111-.0332.0114-.0507.0011-.0329-.0106-.0649-.0328-.0892-.0223-.0241-.0532-.0386-.0861-.0402-.0352-.0019-.0696.0101-.096.0335-.0264.0234-.0423.0562-.0444.0915.0003.0326.0127.0639.0351.0877.0223.0238.0527.0385.0853.0409ZM42.5254 11.7447c.0165-.0004.0327-.0042.0478-.0111.0151-.0069.0285-.0166.0398-.0288.0112-.0122.0198-.0263.0255-.042.0058-.0155.0082-.032.0073-.0485-.0008-.0333-.0148-.065-.0388-.0881-.0241-.0232-.0562-.0359-.0897-.0354-.0173-.0005-.0345.0026-.0506.009-.0161.0065-.0306.0162-.0429.0283-.0122.0124-.0218.027-.0282.0432-.0063.0161-.0093.0334-.0088.0508.0005.0172.0046.0342.0119.0499.0075.0158.018.0297.0309.0413.013.0114.0281.0202.0446.0257.0165.0053.0338.0073.0512.0057ZM46.7009 20.7749c-.0332.0014-.0646.0154-.088.0389-.0235.0236-.0373.055-.0385.0882-.0016.0332.0101.0657.0325.0904.0223.0245.0536.0393.0868.041.0177.0014.0356-.001.0523-.007.0168-.0061.032-.0157.0447-.0281.0128-.0124.0227-.0275.0292-.044.0063-.0167.0093-.0344.0082-.0522-.0019-.0331-.016-.0643-.0395-.0879-.0234-.0234-.0547-.0373-.0877-.0393ZM41.2891 27.8853c-.0177-.0012-.0355.0013-.0523.0074-.0166.0062-.0319.0158-.0446.0282-.0127.0124-.0227.0275-.0292.044-.0064.0165-.0094.0342-.0086.052.0014.0333.0158.0649.04.0877.0242.023.0565.0356.0898.035.0337.0007.0664-.0121.0907-.0355.0242-.0233.0382-.0555.0389-.0892.0007-.0337-.0121-.0663-.0354-.0907-.0234-.0242-.0556-.0382-.0893-.0389ZM28.4603 21.6177c-.0011-.0332-.0152-.0645-.039-.0875-.024-.0228-.0559-.0354-.089-.0351-.0332.0004-.0648.0137-.0882.0371-.0234.0234-.0366.0552-.0371.0883.0002.0176.0038.0351.0109.0515.0069.0163.0171.031.0297.0434.0127.0123.0278.022.0442.0285.0165.0063.0341.0096.0519.0092.0331-.003.064-.0188.0857-.044.0217-.0254.0329-.0581.0309-.0914ZM28.241 20.2061c-.0009-.0333-.0146-.065-.0383-.0883-.0238-.0232-.0557-.0365-.0891-.0365-.0176.0004-.0351.0042-.0512.0114-.0162.0072-.0309.0175-.043.0302-.0121.0128-.0218.0279-.0281.0444-.0063.0167-.0093.0342-.0088.0519.0039.033.0203.0633.0458.0848.0255.0213.0582.0323.0915.0304.0164-.0001.0327-.0035.0478-.0101.0153-.0066.0288-.0161.0402-.0282.0113-.0119.02-.0261.0257-.0416.0058-.0154.0083-.0319.0075-.0484ZM28.5314 22.1859c-.0179-.0013-.0357.0011-.0525.0072-.0166.006-.0318.0158-.0447.0282-.0127.0124-.0225.0273-.0292.044-.0065.0165-.0093.0344-.0084.0522.0003.0165.0036.0328.0103.0479.0065.0152.016.0289.028.0403.0119.0115.026.0203.0415.0263.0155.0057.0319.0086.0485.0079.0333.0005.0656-.0122.0897-.0352.024-.0231.0379-.0548.0388-.0881.0007-.0334-.0116-.0657-.0344-.0901-.0229-.0245-.0543-.0391-.0876-.0406ZM29.7866 24.7384c-.033.0025-.0637.0178-.0858.0424-.0222.0247-.0339.057-.0328.0901.0002.0165.0036.0328.0102.0479.0065.015.0159.0287.0276.0401.0119.0115.0258.0204.0411.0264.0153.0061.0317.0089.0481.0085.0165.0005.0328-.0023.0482-.0082.0154-.0059.0293-.0149.041-.0265.0119-.0114.0212-.0253.0274-.0405.0063-.0152.0094-.0316.0093-.0479.0006-.0178-.0027-.0353-.0093-.0516-.0066-.0164-.0165-.0314-.0292-.0438-.0126-.0124-.0275-.022-.044-.0283-.0164-.0064-.0341-.0093-.0518-.0086ZM28.7721 22.8608c-.0163-.0014-.0328.0004-.0485.0057-.0155.005-.03.0133-.0423.0242-.0123.0109-.0221.0243-.0292.0392-.007.0148-.0108.0309-.0113.0474-.0019.0252.0036.0505.016.0725.0124.022.0311.0398.0538.0512.0226.0113.0481.0155.0731.0122.0252-.0033.0486-.0141.0675-.0308.0189-.0168.0325-.039.0387-.0634.0063-.0245.0051-.0503-.0034-.0741-.0085-.0239-.024-.0446-.0443-.0596-.0204-.0149-.0448-.0234-.0701-.0245ZM45.8402 15.4354c.0332-.003.0639-.0182.0863-.0426.0226-.0246.0353-.0564.0357-.0896-.0024-.0332-.0173-.0643-.042-.0868-.0245-.0225-.0568-.0347-.0901-.0342-.0167-.0007-.033.0022-.0485.0081-.0154.0059-.0295.0149-.0413.0265-.0119.0116-.0213.0254-.0277.0406-.0063.0152-.0096.0316-.0094.0482-.0005.0178.0029.0354.0097.0519.0069.0164.0171.0312.03.0435.0129.0122.0282.0215.045.0275.0168.0059.0347.0083.0523.0069ZM28.5115 16.7991c.0176.0011.0353-.0016.0519-.0079.0165-.0064.0315-.0162.0439-.0289.0124-.0126.022-.0278.0279-.0445.0059-.0166.0083-.0344.0069-.052-.0015-.033-.0161-.0642-.0405-.0864-.0242-.0225-.0565-.0343-.0895-.0332-.0164 0-.0327.0033-.0478.0097-.0151.0064-.0288.0157-.0404.0274-.0115.0117-.0204.0257-.0265.0409-.006.0152-.009.0316-.0087.0481-.0004.033.0124.0649.0352.0886.0232.0238.0546.0375.0876.0382ZM29.3983 24.1406c-.0163 0-.0324.0034-.0475.0097-.015.0064-.0286.0158-.0399.0277-.0113.0118-.0202.0258-.0258.0412-.0058.0153-.0083.0315-.0076.0479 0 .0168.0033.0336.01.0492.0066.0155.0163.0295.0285.0412.0121.0117.0266.021.0424.0269.0157.0061.0326.0089.0494.0082.0169-.0005.0335-.0045.0488-.0117.0153-.0072.029-.0173.0403-.0299.0113-.0125.02-.0272.0254-.0431.0056-.0161.0077-.033.0066-.0498-.0007-.0164-.0046-.0325-.0117-.0473-.0069-.0148-.0168-.028-.0289-.0389-.0121-.011-.0264-.0193-.0418-.0247-.0155-.0053-.0318-.0076-.0482-.0066ZM34.2922 28.1572c-.0176-.0002-.0351.0031-.0514.0101-.0162.007-.0308.0172-.043.0301-.0119.0129-.0211.0282-.0269.0449-.0058.0168-.0079.0345-.0063.052.0007.0164.0047.0325.0118.0473.0071.0148.0169.028.0293.0389.0123.0108.0265.019.0422.0242.0155.0053.0319.0072.0482.006.033-.0012.0643-.0153.087-.0394.0229-.0238.0352-.0558.0345-.089-.0007-.033-.0141-.0644-.0374-.0878-.0234-.0233-.0549-.0367-.088-.0373ZM38.509 10.3158c.0329-.003.0633-.0182.0852-.0429.022-.0247.0336-.0568.0326-.0897-.0016-.033-.016-.0642-.0399-.0869-.024-.0225-.056-.0349-.089-.0345-.0164-.0003-.0327.0029-.0478.009-.0153.0062-.0291.0154-.0406.0269-.0117.0116-.0209.0254-.0271.0405-.0064.0153-.0095.0315-.0093.048-.0004.0176.0031.0351.0099.0513.0067.0164.0169.031.0296.0432.0128.0122.0279.0217.0445.0276.0167.0061.0343.0086.0519.0075ZM38.5339 28.6414c-.0332-.0011-.0655.0107-.0899.0329-.0245.0223-.0393.0533-.0414.0863-.0016.0252.0044.0505.0172.0723.0128.022.0319.0395.0547.0507.0229.011.0485.0148.0736.0111.025-.0037.0484-.0147.0673-.0317.0188-.0171.032-.0394.0381-.0639.0059-.0247.0045-.0506-.0043-.0745-.0087-.0237-.0244-.0444-.0449-.0592-.0206-.0148-.0452-.0233-.0704-.024ZM11.1188 26.6438c1.0758-2.0546 2.2499-4.0799 3.2154-6.1999 1.063-2.3342-.2665-4.7557-2.7398-5.2774-2.28029-.4808-4.37946 1.0819-4.6577 3.4672-.24581 2.1074 1.36936 3.8855 3.6372 3.9966.3399.0166.6814.0023 1.1536.0023l-2.34866 4.0111h1.74036l-.0004.0001Zm-.1757-5.2653c-1.51476.0202-2.61674-1.0181-2.6259-2.4739-.00903-1.4678 1.08491-2.5522 2.5619-2.5393 1.4169.0124 2.4344 1.0445 2.449 2.4843.015 1.4613-.974 2.5102-2.385 2.5289ZM4.1936 15.2236c-.79778.3713-1.35568.6104-1.89425.887-.59795.307-1.17813.6487-1.79935.9936.021436.4503.040474.8501.063321 1.3353l2.103259-1.0303v8.0809h-.96321v1.1301h3.48545v-1.1301h-.96081s.00508-3.5849-.00155-5.2034c-.00649-1.5978.02976-3.198-.03286-5.0631ZM16.4613 11.1201H.560547v.7693H16.4613v-.7693ZM16.4613 29.8904H.560547v.7693H16.4613v-.7693ZM77.4302 11.1201H59.2968v.7693h18.1334v-.7693ZM77.4302 29.8904H59.2968v.7693h18.1334v-.7693ZM60.3945 23.5728c-.0005.5946.155 1.179.4513 1.6949.2965.5158.7232.9451 1.2377 1.2447.5144.2998 1.0985.4594 1.6942.4632.5956.0038 1.1818-.1484 1.7001-.4416s.9504-.717 1.2532-1.229c.3029-.512.466-1.0944.4728-1.689.0071-.5947-.1426-1.1807-.4334-1.6997-.2909-.5188-.7131-.9526-1.2243-1.2575.5312-.371.9302-.9014 1.1389-1.5143.2087-.6127.2162-1.276.0214-1.8935-.1947-.6174-.5817-1.1566-1.1045-1.5395-.5228-.3828-1.1541-.5892-1.8024-.5892-.6485 0-1.2799.2064-1.8028.5892-.5226.3829-.9096.9221-1.1043 1.5395-.1948.6175-.1873 1.2808.0214 1.8935.2087.6129.6077 1.1433 1.1389 1.5143-.5053.3008-.9238.7276-1.2145 1.2383-.2907.5109-.4435 1.0881-.4437 1.6757Zm1.5673-5.4055c-.0003-.3598.1052-.7116.3034-1.0119.1985-.3003.4808-.5357.8121-.6772.3312-.1414.6969-.1824 1.0513-.1179.3545.0645.6822.2315.9423.4804.2601.2489.4413.5687.5207.9194.0795.3509.054.7173-.0733 1.0538-.1274.3365-.351.6281-.6431.8388-.2922.2104-.6397.3307-.9997.3456-.0256-.0007-.0505-.0038-.076-.0038-.0257 0-.0505.0031-.0761.0038-.4735-.0191-.9214-.2205-1.2497-.5618-.3285-.3413-.5118-.796-.5119-1.2694v.0002Zm1.8375 3.2106c.4349 0 .8599.1287 1.2214.3699.3616.2412.6434.5839.8098.985s.2099.8424.1251 1.2681c-.0849.4258-.2942.8169-.6018 1.1239-.3074.3069-.6992.516-1.1255.6007-.4266.0846-.8686.0411-1.2702-.125-.4018-.166-.7452-.4474-.9866-.8084-.2417-.3609-.3706-.7852-.3706-1.2193 0-.5822.2315-1.1404.6439-1.5521.4123-.4116.9715-.6429 1.5547-.6429l-.0002.0001ZM73.0298 26.9593c-.8099 0-1.5032-.2085-2.0801-.6256-.5769-.417-1.0374-.9955-1.3813-1.7355l.9819-.666c.2663.5785.6046 1.036 1.0151 1.3723.4105.3229.9153.4844 1.5144.4844.6435 0 1.1427-.1817 1.4978-.5449.3661-.3768.5491-.888.5491-1.5338 0-.7937-.2386-1.379-.7157-1.7556-.4769-.3768-1.2203-.565-2.2299-.565v-1.1504c.9208 0 1.6199-.1749 2.097-.5246.4769-.3499.7155-.8745.7155-1.5741 0-.5381-.1609-.9687-.4827-1.2917-.3217-.3228-.7876-.4843-1.3979-.4843-.5769 0-1.0705.175-1.481.5248-.4105.3498-.7046.8274-.882 1.4328l-.9985-.565c.1886-.5382.4437-.9957.7654-1.3723.3218-.3766.7046-.666 1.1484-.8677.4438-.2153.9319-.323 1.4644-.323.9207 0 1.6531.2624 2.1966.787.5548.5248.8322 1.2244.8322 2.0989 0 .5381-.1165 1.0156-.3495 1.4327-.2219.4171-.5325.7467-.932.9889-.3883.242-.8266.37-1.3147.3834v-.222c.81 0 1.4756.2758 1.9971.8274.5325.5516.7988 1.2915.7988 2.2198 0 .6727-.1332 1.2512-.3994 1.7355-.2663.4844-.6491.8611-1.1484 1.1302-.4992.2555-1.0926.3834-1.7806.3834Z"/></g><defs><clipPath id="clip0_1_2045"><path fill="#fff" d="M.5 0h77v39H.5z"/></clipPath></defs></svg>