<svg width="25" height="26" viewBox="0 0 25 26" fill="none" xmlns="http://www.w3.org/2000/svg">
<circle cx="12.5" cy="13" r="12.5" fill="white"/>
<path d="M13.8047 15.7635H6.83097V13.5455H13.728C14.2479 13.5455 14.674 13.4687 15.0064 13.3153C15.3388 13.1619 15.5838 12.9446 15.7415 12.6634C15.8991 12.3821 15.978 12.0497 15.978 11.6662C15.978 11.2912 15.8991 10.9524 15.7415 10.6499C15.5838 10.3473 15.343 10.1065 15.0192 9.92756C14.6953 9.74858 14.2905 9.65909 13.8047 9.65909H11.4396V20.5H8.69105V7.40909H13.8047C14.8402 7.40909 15.7266 7.59446 16.4638 7.9652C17.2053 8.33168 17.772 8.83452 18.1641 9.47372C18.5561 10.1087 18.75 10.8288 18.7457 11.6342C18.75 12.478 18.5518 13.2088 18.1513 13.8267C17.7507 14.4446 17.1797 14.9219 16.4382 15.2585C15.6967 15.5952 14.8189 15.7635 13.8047 15.7635ZM14.2969 16.6072V18.8253H6.83097V16.6072H14.2969Z" fill="#21A038"/>
</svg>
